<svg width="29" height="32" fill="none" xmlns="http://www.w3.org/2000/svg" class="ml-5 mr-3 desktop:ml-0"><path opacity="0.3" d="M12.046 23.061 1.55 12.564a5.125 5.125 0 0 1 7.247-7.247L15.68 12.2a5.125 5.125 0 0 1-.01 7.238l-3.624 3.623Z" fill="url(#logo_svg__a)"></path><path opacity="0.2" d="M10.208 10.445a2.615 2.615 0 0 0 0-3.704l5.466 5.467a5.125 5.125 0 0 1 0 7.238l-6.933 7.07a5.124 5.124 0 0 1-7.242 0l-.046-.05a5.12 5.12 0 0 1 .046-7.193l8.71-8.828Z" fill="url(#logo_svg__b)"></path><path d="m12.07 8.738 14.51 14.51a5.124 5.124 0 0 1-1.649 8.355 5.126 5.126 0 0 1-5.6-1.104L8.444 19.612a5.123 5.123 0 0 1 .016-7.263l3.61-3.61Z" fill="url(#logo_svg__c)"></path><path d="M13.911 21.359a2.618 2.618 0 0 0 0 3.708L8.445 19.6a5.117 5.117 0 0 1 0-7.238L19.291 1.498a5.124 5.124 0 0 1 7.243 0l.045.05a5.12 5.12 0 0 1-.045 7.188L13.91 21.359Z" fill="url(#logo_svg__d)"></path><path d="m13.911 25.053-5.466-5.466a5.07 5.07 0 0 1-1.49-3.826 5.07 5.07 0 0 1 1.49-3.376l3.644-3.644 7.211 7.23-5.389 5.388a2.62 2.62 0 0 0 0 3.694Z" fill="url(#logo_svg__e)"></path><defs><linearGradient id="logo_svg__a" x1="16.476" y1="18.967" x2="2.371" y2="4.862" gradientUnits="userSpaceOnUse"><stop offset="0.5" stop-color="#0D90FE"></stop><stop offset="0.59" stop-color="#23A5FD"></stop><stop offset="0.77" stop-color="#45C5FB"></stop><stop offset="0.91" stop-color="#5AD9FA"></stop><stop offset="1" stop-color="#62E0FA"></stop></linearGradient><linearGradient id="logo_svg__b" x1="14.786" y1="11.315" x2="0.542" y2="25.559" gradientUnits="userSpaceOnUse"><stop stop-color="#1DFF96"></stop><stop offset="1" stop-color="#02FFF9"></stop></linearGradient><linearGradient id="logo_svg__c" x1="8.442" y1="12.362" x2="26.581" y2="30.496" gradientUnits="userSpaceOnUse"><stop offset="0.39" stop-color="#006AED"></stop><stop offset="1" stop-color="#00EDFF"></stop></linearGradient><linearGradient id="logo_svg__d" x1="9.365" y1="20.521" x2="27.458" y2="2.428" gradientUnits="userSpaceOnUse"><stop stop-color="#1DFF96"></stop><stop offset="1" stop-color="#02FFF9"></stop></linearGradient><linearGradient id="logo_svg__e" x1="9.37" y1="20.525" x2="16.608" y2="13.283" gradientUnits="userSpaceOnUse"><stop stop-color="#1DECA0" stop-opacity="0.85"></stop><stop offset="1" stop-color="#13ECC1" stop-opacity="0.85"></stop></linearGradient></defs></svg>